<svg viewBox="0 0 256 256" xmlns="http://www.w3.org/2000/svg">
  <g fill="none">
    <rect width="256" height="256" fill="#000" rx="60"/>
    <path fill="#FFF" d="M141.536 110.496c-1.024 0-2.56-.512-3.584-1.024l-36.864-22.528c-1.024-.512-1.536-1.536-1.536-2.56v-45.568c0-1.024.512-2.048 1.536-2.56l36.864-22.528c1.024-.512 2.56-.512 3.584 0l36.864 22.528c1.024.512 1.536 1.536 1.536 2.56v45.568c0 1.024-.512 2.048-1.536 2.56l-36.864 22.528c-1.024.512-2.048 1.024-3.584 1.024zm-1.792-7.168l34.304-20.992V48.64l-34.304-20.992-34.304 20.992v33.696l34.304 20.992z"/>
    <path fill="#FFF" d="M50.176 178.688c-1.024 0-2.048-.512-2.56-1.536-.512-1.024-.512-2.048 0-3.072l89.6-155.648c.512-1.024 1.536-1.536 2.56-1.536s2.048.512 2.56 1.536l89.6 155.648c.512 1.024.512 2.048 0 3.072-.512 1.024-1.536 1.536-2.56 1.536H50.176zm8.192-6.144h139.264L139.776 28.16 58.368 172.544z"/>
    <path fill="#FFF" d="M228.864 239.104H50.176c-1.024 0-2.048-.512-2.56-1.536-.512-1.024-.512-2.048 0-3.072l89.6-155.648c.512-1.024 1.536-1.536 2.56-1.536s2.048.512 2.56 1.536l89.6 155.648c.512 1.024.512 2.048 0 3.072-.512 1.024-1.536 1.536-2.56 1.536h-1.024zm-170.496-6.144h162.304L139.776 88.576 58.368 232.96z"/>
  </g>
</svg>
