<svg viewBox="0 0 256 256" xmlns="http://www.w3.org/2000/svg">
  <rect width="256" height="256" fill="#000" rx="28"/>
  <path fill="#FFF" d="M188.803 83.11L146.227 56.31c-5.065-3.186-11.645-3.186-16.71 0L87.197 83.11c-5.065 3.186-8.226 8.77-8.226 14.873v53.634c0 6.103 3.161 11.687 8.226 14.873l42.576 26.8c5.065 3.186 11.645 3.186 16.71 0l42.576-26.8c5.065-3.186 8.226-8.77 8.226-14.873V97.983c-.256-6.103-3.417-11.687-8.482-14.873zm-50.802 94.45c-24.516 0-44.343-19.827-44.343-44.343s19.827-44.343 44.343-44.343 44.343 19.827 44.343 44.343-19.827 44.343-44.343 44.343z"/>
  <circle cx="138" cy="133.217" r="28.4" fill="#FFF"/>
</svg>
