<svg viewBox="0 0 256 259" xmlns="http://www.w3.org/2000/svg">
  <path d="M251.051 165.634c-.706-1.412-2.118-2.118-3.53-2.118-1.412 0-2.824.706-3.53 2.118l-15.295 30.59-15.295-30.59c-.706-1.412-2.118-2.118-3.53-2.118-1.412 0-2.824.706-3.53 2.118l-18.825 37.649v-94.12c0-20.237-16.707-36.944-36.944-36.944-20.237 0-36.944 16.707-36.944 36.944v94.12l-18.825-37.649c-.706-1.412-2.118-2.118-3.53-2.118-1.412 0-2.824.706-3.53 2.118L72.448 196.224l-15.295-30.59c-.706-1.412-2.118-2.118-3.53-2.118-1.412 0-2.824.706-3.53 2.118L4.949 258.283h246.102l-15.295-92.649z" fill="#E0234E"/>
  <path d="M150.827 0c-20.237 0-36.944 16.707-36.944 36.944v94.12l-18.825-37.649c-.706-1.412-2.118-2.118-3.53-2.118-1.412 0-2.824.706-3.53 2.118L72.448 124.005 57.153 93.415c-.706-1.412-2.118-2.118-3.53-2.118-1.412 0-2.824.706-3.53 2.118L4.949 186.064h246.102l-15.295-92.649c-.706-1.412-2.118-2.118-3.53-2.118-1.412 0-2.824.706-3.53 2.118l-15.295 30.59-15.295-30.59c-.706-1.412-2.118-2.118-3.53-2.118-1.412 0-2.824.706-3.53 2.118l-18.825 37.649v-94.12C187.771 16.707 171.064 0 150.827 0z" fill="#E0234E"/>
</svg>
