<svg width="98" height="100" viewBox="0 0 98 100" fill="none" xmlns="http://www.w3.org/2000/svg">
<path d="M56.8941 98.3387C54.3395 101.556 49.1596 99.7931 49.0981 95.6853L48.198 35.6033H88.5971C95.9144 35.6033 99.9955 44.0549 95.4454 49.7857L56.8941 98.3387Z" fill="url(#paint0_linear_790_3466)"/>
<path d="M56.8941 98.3387C54.3395 101.556 49.1596 99.7931 49.0981 95.6853L48.198 35.6033H88.5971C95.9144 35.6033 99.9955 44.0549 95.4454 49.7857L56.8941 98.3387Z" fill="url(#paint1_linear_790_3466)" fill-opacity="0.2"/>
<path d="M40.464 1.66158C43.0187 -1.55589 48.1986 0.20705 48.2601 4.31494L48.6546 64.3969H8.76106C1.44348 64.3969 -2.63767 55.9453 1.91262 50.2145L40.464 1.66158Z" fill="#3ECF8E"/>
<defs>
<linearGradient id="paint0_linear_790_3466" x1="48.198" y1="48.925" x2="84.1033" y2="63.9836" gradientUnits="userSpaceOnUse">
<stop stop-color="#249361"/>
<stop offset="1" stop-color="#3ECF8E"/>
</linearGradient>
<linearGradient id="paint1_linear_790_3466" x1="32.2795" y1="27.1297" x2="48.6542" y2="57.9542" gradientUnits="userSpaceOnUse">
<stop/>
<stop offset="1" stop-opacity="0"/>
</linearGradient>
</defs>
</svg>
